<?xml version="1.0" encoding="utf-8"?>
<!-- Generator: Adobe Illustrator 27.4.0, SVG Export Plug-In . SVG Version: 6.00 Build 0)  -->
<svg version="1.1" id="Layer_1" xmlns="http://www.w3.org/2000/svg" xmlns:xlink="http://www.w3.org/1999/xlink" x="0px" y="0px"
	 viewBox="0 0 48 48" style="enable-background:new 0 0 48 48;" xml:space="preserve">
<style type="text/css">
	.st0{fill:#FFFFFF;}
</style>
<circle cx="-28.53" cy="24" r="24"/>
<path class="st0" d="M-16.94,29.9c-0.36-0.26-0.69-0.49-1.07-0.76c-0.36,0.86-0.71,1.68-1.08,2.56c-0.32-0.3-0.59-0.54-0.83-0.8
	c-0.18-0.19-0.32-0.19-0.5,0c-0.25,0.26-0.53,0.5-0.83,0.79c-0.33-0.41-0.64-0.78-0.94-1.16c-0.04,0.01-0.08,0.02-0.11,0.03
	c-0.36,2.75-0.71,5.5-1.07,8.25c-0.02,0-0.04,0-0.06,0c-0.35-4.31-0.7-8.62-1.05-12.94c-0.04,0-0.08-0.01-0.12-0.01
	c-0.3,1.71-0.6,3.42-0.92,5.24c-0.39-0.68-0.72-1.27-1.1-1.94c-0.28,0.4-0.53,0.71-0.73,1.05c-0.2,0.34-0.46,0.48-0.84,0.43
	c-0.19-0.02-0.38-0.02-0.57,0c-0.71,0.07-1.36-0.03-1.89-0.56c-0.16-0.15-0.33-0.16-0.5-0.01c-0.03,0.02-0.06,0.04-0.09,0.06
	c-0.45,0.43-0.93,0.52-1.54,0.29c-0.27-0.11-0.66,0.03-0.98,0.12c-0.28,0.08-0.46,0.05-0.62-0.21c-0.21-0.34-0.45-0.66-0.68-0.98
	c-0.04,0-0.08,0.01-0.13,0.01c-0.35,3.38-0.7,6.76-1.06,10.24c-0.33-0.43-0.62-0.79-0.88-1.16c-0.17-0.24-0.33-0.31-0.59-0.15
	c-0.08,0.05-0.17,0.08-0.25,0.13c-0.31,0.2-0.61,0.22-0.92,0c-0.41-0.3-0.81-0.26-1.24-0.01c-0.45,0.26-0.46,0.23-0.79-0.19
	c-0.18-0.22-0.35-0.44-0.52-0.68c-0.15-0.21-0.28-0.25-0.48-0.07c-0.17,0.16-0.38,0.29-0.55,0.45c-0.19,0.18-0.33,0.16-0.52,0
	c-0.21-0.19-0.44-0.35-0.67-0.53c-0.02-0.02-0.07-0.02-0.15-0.04c-0.34,0.71-0.68,1.43-1.03,2.14c-0.03,0-0.06,0-0.09-0.01
	c-0.34-3.09-0.69-6.18-1.03-9.27c-0.04-0.01-0.08-0.01-0.12-0.02c-0.3,0.68-0.61,1.35-0.91,2.03c-0.03-0.01-0.06-0.01-0.09-0.02
	c-0.32-1.48-0.63-2.96-0.95-4.44c-0.04,0-0.08,0-0.11,0c-0.33,2.17-0.67,4.34-1,6.51c-0.02,0-0.04,0-0.06,0.01
	c-0.35-1.25-0.7-2.5-1.08-3.85c-0.35,0.43-0.62,0.77-0.9,1.11c-0.02-0.02-0.05-0.04-0.07-0.06c0.32-0.4,0.63-0.8,1.02-1.29
	c0.34,1.2,0.66,2.32,0.97,3.44c0.04,0,0.08-0.01,0.12-0.01c0.33-2.18,0.67-4.36,1-6.54c0.03,0,0.05,0,0.08,0
	c0.34,1.57,0.67,3.15,1.01,4.72c0.04,0.01,0.08,0.02,0.12,0.04c0.31-0.69,0.62-1.38,0.93-2.08c0.03,0,0.07,0,0.1,0
	c0.34,3.08,0.69,6.16,1.03,9.24c0.04,0.01,0.08,0.02,0.13,0.03c0.3-0.63,0.6-1.25,0.92-1.93c0.31,0.24,0.58,0.44,0.83,0.67
	c0.19,0.17,0.34,0.17,0.52,0c0.18-0.17,0.39-0.31,0.58-0.47c0.17-0.15,0.31-0.14,0.44,0.05c0.21,0.28,0.44,0.55,0.65,0.84
	c0.15,0.22,0.32,0.31,0.56,0.14c0.51-0.36,1-0.33,1.5,0.02c0.22,0.15,0.44,0.09,0.67-0.01c0.88-0.4,0.62-0.48,1.25,0.32
	c0.14,0.17,0.27,0.34,0.41,0.51c0.04-0.01,0.08-0.02,0.12-0.03c0.35-3.38,0.7-6.76,1.05-10.14c0.03-0.01,0.05-0.02,0.08-0.03
	c0.27,0.39,0.57,0.77,0.81,1.17c0.18,0.29,0.37,0.36,0.67,0.22c0.43-0.2,0.86-0.2,1.3,0.01c0.27,0.13,0.5,0.07,0.75-0.1
	c0.91-0.64,0.61-0.61,1.46-0.02c0.26,0.18,0.51,0.27,0.82,0.25c0.4-0.02,0.8-0.03,1.2,0c0.34,0.02,0.55-0.1,0.72-0.39
	c0.24-0.39,0.52-0.76,0.83-1.2c0.34,0.6,0.65,1.14,0.96,1.68c0.04-0.01,0.08-0.02,0.11-0.03c0.33-1.84,0.65-3.67,0.98-5.51
	c0.04,0,0.09,0,0.13,0.01c0.33,4.12,0.66,8.24,1,12.36c0.04,0,0.09,0,0.13,0.01c0.31-2.4,0.62-4.81,0.93-7.21
	c0.03-0.01,0.07-0.02,0.1-0.03c0.26,0.33,0.53,0.65,0.77,0.99c0.18,0.24,0.33,0.31,0.55,0.05c0.17-0.2,0.38-0.35,0.56-0.54
	c0.16-0.17,0.28-0.16,0.44,0c0.25,0.25,0.51,0.48,0.83,0.78c0.37-0.87,0.71-1.67,1.08-2.54c0.24,0.17,0.43,0.32,0.63,0.46
	c0.44,0.33,0.44,0.33,0.72-0.13c0.21-0.34,0.42-0.68,0.62-1.03c0.12-0.2,0.25-0.24,0.47-0.15c0.78,0.32,0.78,0.31,1.07-0.5
	c0.21-0.6,0.43-1.2,0.64-1.8c0.04-0.1,0.09-0.2,0.17-0.38c0.19,0.38,0.35,0.7,0.51,1.01c0.15,0.3,0.31,0.59,0.46,0.89
	c0.04-0.01,0.08-0.01,0.11-0.02c0.34-1.76,0.68-3.53,1.02-5.29c0.02-0.01,0.04-0.01,0.06-0.02c0.3,0.86,0.59,1.73,0.89,2.59
	c0.04,0,0.09-0.01,0.13-0.01c0.35-5.02,0.7-10.04,1.04-15.06c0.03,0,0.07,0,0.1,0.01c-0.36,5.16-0.71,10.32-1.07,15.47
	c-0.05,0.01-0.1,0.02-0.15,0.03c-0.3-0.83-0.59-1.66-0.89-2.5c-0.04,0-0.07,0-0.11,0.01c-0.33,1.71-0.66,3.43-0.99,5.14
	c-0.03,0-0.06,0.01-0.09,0.01c-0.32-0.63-0.64-1.27-1.01-1.99c-0.09,0.2-0.15,0.31-0.19,0.42c-0.25,0.7-0.51,1.4-0.75,2.1
	c-0.09,0.26-0.19,0.33-0.46,0.21c-0.77-0.33-0.77-0.31-1.21,0.42C-16.52,29.21-16.73,29.54-16.94,29.9z"/>
<path d="M39.31,30.1c-0.42-0.29-0.79-0.56-1.22-0.87c-0.42,0.99-0.81,1.92-1.24,2.93c-0.36-0.34-0.67-0.62-0.95-0.92
	c-0.21-0.22-0.36-0.22-0.57,0c-0.29,0.3-0.6,0.57-0.95,0.9c-0.38-0.47-0.73-0.9-1.08-1.33c-0.04,0.01-0.09,0.02-0.13,0.03
	c-0.41,3.15-0.82,6.3-1.22,9.45c-0.02,0-0.04,0-0.06,0c-0.4-4.93-0.8-9.87-1.2-14.8c-0.05,0-0.09-0.01-0.14-0.01
	c-0.34,1.96-0.69,3.91-1.05,5.99c-0.44-0.78-0.83-1.46-1.26-2.22c-0.32,0.45-0.61,0.81-0.84,1.2c-0.23,0.39-0.52,0.55-0.97,0.49
	c-0.21-0.03-0.43-0.02-0.65,0c-0.81,0.08-1.56-0.03-2.17-0.64c-0.18-0.18-0.38-0.18-0.57-0.01c-0.03,0.03-0.07,0.04-0.1,0.07
	c-0.52,0.49-1.06,0.6-1.76,0.33c-0.31-0.12-0.76,0.03-1.12,0.14c-0.32,0.09-0.52,0.06-0.71-0.24c-0.24-0.39-0.51-0.75-0.78-1.12
	c-0.05,0.01-0.1,0.01-0.15,0.02c-0.4,3.87-0.8,7.74-1.21,11.72c-0.38-0.5-0.71-0.9-1.01-1.33c-0.19-0.27-0.38-0.36-0.67-0.17
	c-0.09,0.06-0.2,0.09-0.29,0.15c-0.35,0.23-0.7,0.25-1.05,0c-0.47-0.34-0.93-0.3-1.42-0.01c-0.51,0.29-0.53,0.26-0.91-0.22
	c-0.2-0.25-0.41-0.51-0.59-0.77c-0.17-0.24-0.33-0.29-0.55-0.07c-0.2,0.18-0.43,0.33-0.63,0.52c-0.21,0.21-0.38,0.18-0.59,0
	c-0.24-0.22-0.51-0.41-0.76-0.6c-0.03-0.02-0.08-0.02-0.18-0.05c-0.39,0.81-0.78,1.63-1.18,2.45c-0.03,0-0.07,0-0.1-0.01
	c-0.39-3.53-0.79-7.07-1.18-10.6c-0.05-0.01-0.09-0.02-0.14-0.02c-0.35,0.77-0.7,1.55-1.04,2.32c-0.03-0.01-0.07-0.01-0.1-0.02
	c-0.36-1.69-0.73-3.38-1.09-5.07c-0.04,0-0.09,0-0.13,0c-0.38,2.48-0.76,4.97-1.15,7.45c-0.02,0-0.04,0-0.06,0.01
	c-0.4-1.43-0.8-2.86-1.23-4.41c-0.4,0.49-0.71,0.88-1.03,1.27c-0.03-0.02-0.06-0.04-0.08-0.07c0.36-0.46,0.73-0.92,1.17-1.47
	c0.39,1.38,0.75,2.66,1.11,3.94c0.04,0,0.09-0.01,0.13-0.01c0.38-2.5,0.77-4.99,1.15-7.49c0.03,0,0.06,0,0.09,0
	c0.39,1.8,0.77,3.6,1.16,5.4c0.04,0.01,0.09,0.03,0.13,0.04c0.36-0.79,0.71-1.58,1.07-2.38c0.04,0,0.08,0,0.11,0.01
	c0.39,3.52,0.78,7.04,1.18,10.57c0.05,0.01,0.1,0.02,0.14,0.04c0.34-0.72,0.69-1.43,1.06-2.21c0.35,0.28,0.66,0.51,0.95,0.76
	c0.21,0.19,0.39,0.19,0.59,0c0.21-0.19,0.44-0.35,0.66-0.54c0.2-0.17,0.35-0.16,0.51,0.06c0.24,0.33,0.51,0.63,0.74,0.96
	c0.18,0.25,0.37,0.35,0.64,0.16c0.58-0.41,1.14-0.38,1.71,0.02c0.25,0.18,0.5,0.1,0.76-0.02c1.01-0.46,0.71-0.54,1.43,0.36
	c0.16,0.19,0.31,0.39,0.46,0.59c0.04-0.01,0.09-0.02,0.13-0.03c0.4-3.87,0.8-7.73,1.2-11.6c0.03-0.01,0.06-0.02,0.09-0.03
	c0.31,0.45,0.65,0.88,0.93,1.34c0.2,0.33,0.42,0.41,0.77,0.25c0.49-0.23,0.99-0.23,1.48,0.01c0.31,0.15,0.57,0.08,0.86-0.12
	c1.04-0.73,0.7-0.69,1.67-0.02c0.29,0.2,0.58,0.3,0.94,0.29c0.46-0.02,0.92-0.03,1.38,0c0.39,0.03,0.63-0.12,0.83-0.44
	c0.28-0.45,0.6-0.86,0.95-1.37c0.39,0.68,0.74,1.3,1.09,1.92c0.04-0.01,0.09-0.02,0.13-0.03c0.37-2.1,0.75-4.2,1.12-6.3
	c0.05,0,0.1,0,0.15,0.01c0.38,4.72,0.76,9.43,1.14,14.14c0.05,0,0.1,0,0.15,0.01c0.36-2.75,0.71-5.5,1.07-8.25
	c0.04-0.01,0.07-0.02,0.11-0.04c0.3,0.38,0.6,0.74,0.88,1.13c0.2,0.28,0.37,0.35,0.63,0.06c0.19-0.22,0.44-0.41,0.64-0.62
	c0.18-0.19,0.32-0.19,0.51,0c0.28,0.28,0.58,0.55,0.95,0.9c0.42-0.99,0.82-1.91,1.24-2.9c0.27,0.2,0.5,0.36,0.72,0.53
	c0.51,0.38,0.51,0.38,0.83-0.15c0.24-0.39,0.48-0.78,0.71-1.18c0.13-0.23,0.28-0.27,0.53-0.17c0.89,0.36,0.9,0.36,1.23-0.58
	c0.24-0.69,0.49-1.37,0.74-2.06c0.04-0.12,0.1-0.23,0.19-0.43c0.22,0.44,0.4,0.8,0.58,1.16c0.17,0.34,0.35,0.68,0.52,1.02
	c0.04-0.01,0.09-0.01,0.13-0.02c0.39-2.02,0.78-4.04,1.17-6.05c0.02-0.01,0.05-0.01,0.07-0.02c0.34,0.99,0.68,1.98,1.01,2.97
	c0.05,0,0.1-0.01,0.15-0.01c0.4-5.75,0.8-11.49,1.19-17.24c0.04,0,0.08,0.01,0.12,0.01c-0.41,5.9-0.81,11.8-1.22,17.71
	c-0.06,0.01-0.11,0.03-0.17,0.04c-0.34-0.95-0.68-1.9-1.02-2.86c-0.04,0-0.08,0-0.12,0.01c-0.38,1.96-0.76,3.92-1.14,5.89
	c-0.03,0.01-0.07,0.01-0.1,0.02c-0.37-0.73-0.73-1.45-1.15-2.28c-0.1,0.23-0.17,0.35-0.22,0.48c-0.29,0.8-0.58,1.6-0.86,2.4
	c-0.1,0.29-0.22,0.38-0.53,0.24c-0.88-0.37-0.88-0.36-1.38,0.48C39.8,29.32,39.56,29.69,39.31,30.1z"/>
</svg>
