<?xml version="1.0" encoding="utf-8"?><!-- Uploaded to: SVG Repo, www.svgrepo.com, Generator: SVG Repo Mixer Tools -->
<svg fill="#000000" width="800px" height="800px" viewBox="0 0 24 24" xmlns="http://www.w3.org/2000/svg" id="minimize-size" class="icon glyph"><path d="M9,3A1,1,0,0,0,8,4V6.59L3.71,2.29A1,1,0,0,0,2.29,3.71L6.59,8H4a1,1,0,0,0,0,2H8a2,2,0,0,0,2-2V4A1,1,0,0,0,9,3Z"></path><path d="M16,10h4a1,1,0,0,0,0-2H17.41l4.3-4.29a1,1,0,1,0-1.42-1.42L16,6.59V4a1,1,0,0,0-2,0V8A2,2,0,0,0,16,10Z"></path><path d="M8,14H4a1,1,0,0,0,0,2H6.59l-4.3,4.29a1,1,0,0,0,0,1.42,1,1,0,0,0,1.42,0L8,17.41V20a1,1,0,0,0,2,0V16A2,2,0,0,0,8,14Z"></path><path d="M17.41,16H20a1,1,0,0,0,0-2H16a2,2,0,0,0-2,2v4a1,1,0,0,0,2,0V17.41l4.29,4.3a1,1,0,0,0,1.42,0,1,1,0,0,0,0-1.42Z"></path></svg>